<?xml version="1.0" encoding="UTF-8" standalone="no"?>
<!-- Generator: Adobe Illustrator 22.1.0, SVG Export Plug-In . SVG Version: 6.00 Build 0)  -->

<svg
   xmlns:dc="http://purl.org/dc/elements/1.1/"
   xmlns:cc="http://creativecommons.org/ns#"
   xmlns:rdf="http://www.w3.org/1999/02/22-rdf-syntax-ns#"
   xmlns:svg="http://www.w3.org/2000/svg"
   xmlns="http://www.w3.org/2000/svg"
   xmlns:sodipodi="http://sodipodi.sourceforge.net/DTD/sodipodi-0.dtd"
   xmlns:inkscape="http://www.inkscape.org/namespaces/inkscape"
   version="1.1"
   id="Layer_1"
   x="0px"
   y="0px"
   viewBox="0 0 1672.1 241.2"
   style="enable-background:new 0 0 1672.1 241.2;"
   xml:space="preserve"
   sodipodi:docname="kondor-wallet-logo-horizontal-beta.svg"
   inkscape:version="0.92.3 (d244b95, 2018-08-02)"><metadata
   id="metadata6560"><rdf:RDF><cc:Work
       rdf:about=""><dc:format>image/svg+xml</dc:format><dc:type
         rdf:resource="http://purl.org/dc/dcmitype/StillImage" /><dc:title /></cc:Work></rdf:RDF></metadata><defs
   id="defs6558" /><sodipodi:namedview
   pagecolor="#ffffff"
   bordercolor="#666666"
   borderopacity="1"
   objecttolerance="10"
   gridtolerance="10"
   guidetolerance="10"
   inkscape:pageopacity="0"
   inkscape:pageshadow="2"
   inkscape:window-width="1368"
   inkscape:window-height="704"
   id="namedview6556"
   showgrid="false"
   inkscape:zoom="0.5"
   inkscape:cx="625.62501"
   inkscape:cy="210.54238"
   inkscape:window-x="1920"
   inkscape:window-y="27"
   inkscape:window-maximized="1"
   inkscape:current-layer="Layer_1" />
<style
   type="text/css"
   id="style6453">
	.st0{fill:#161616;}
	.st1{fill:#E17726;stroke:#E17726;stroke-linecap:round;stroke-linejoin:round;}
	.st2{fill:#E27625;stroke:#E27625;stroke-linecap:round;stroke-linejoin:round;}
	.st3{fill:#D5BFB2;stroke:#D5BFB2;stroke-linecap:round;stroke-linejoin:round;}
	.st4{fill:#233447;stroke:#233447;stroke-linecap:round;stroke-linejoin:round;}
	.st5{fill:#CC6228;stroke:#CC6228;stroke-linecap:round;stroke-linejoin:round;}
	.st6{fill:#E27525;stroke:#E27525;stroke-linecap:round;stroke-linejoin:round;}
	.st7{fill:#F5841F;stroke:#F5841F;stroke-linecap:round;stroke-linejoin:round;}
	.st8{fill:#C0AC9D;stroke:#C0AC9D;stroke-linecap:round;stroke-linejoin:round;}
	.st9{fill:#161616;stroke:#161616;stroke-linecap:round;stroke-linejoin:round;}
	.st10{fill:#763E1A;stroke:#763E1A;stroke-linecap:round;stroke-linejoin:round;}
	.st11{fill:#F5841F;}
</style>
<g
   id="g6471"
   transform="translate(28)">
	
	
	
	
	
	
	
	
<text
   xml:space="preserve"
   style="font-style:normal;font-weight:normal;font-size:40px;line-height:1.25;font-family:sans-serif;letter-spacing:0px;word-spacing:0px;fill:#000000;fill-opacity:1;stroke:none"
   x="388"
   y="163.2"
   id="text7124"><tspan
     sodipodi:role="line"
     id="tspan7122"
     x="388"
     y="163.2"
     style="font-style:normal;font-variant:normal;font-weight:bold;font-stretch:normal;font-size:106.66666412px;font-family:sans-serif;-inkscape-font-specification:'sans-serif Bold'">Kondor-Wallet</tspan></text>

</g>

<g
   id="g6551">
	<path
   class="st7"
   d="M1409.7,92.6V32.1h19.3c2.9,0,5.6,0.4,8.2,1c2.5,0.6,4.7,1.6,6.6,2.9c1.9,1.3,3.4,3,4.5,5.1   c1.1,2.1,1.6,4.5,1.6,7.3c0,3-0.9,5.5-2.5,7.7c-1.6,2.1-3.8,3.8-6.6,4.9c1.7,0.5,3.2,1.1,4.5,2c1.3,0.9,2.4,1.9,3.3,3.1   c0.9,1.2,1.6,2.6,2,4c0.5,1.5,0.7,3.1,0.7,4.7c0,2.9-0.5,5.4-1.6,7.6c-1.1,2.2-2.5,4-4.4,5.5c-1.9,1.5-4.1,2.6-6.6,3.3   c-2.6,0.8-5.3,1.2-8.3,1.2H1409.7z M1419.8,57.6h9.6c1.5,0,2.9-0.2,4.2-0.6c1.3-0.4,2.4-0.9,3.3-1.7c0.9-0.7,1.7-1.6,2.2-2.7   c0.6-1.1,0.8-2.3,0.8-3.7c0-1.5-0.3-2.8-0.8-3.9c-0.5-1.1-1.3-2-2.2-2.7c-1-0.7-2.1-1.2-3.4-1.5c-1.3-0.3-2.7-0.5-4.3-0.5h-9.5   V57.6z M1419.8,65.2v19.3h10.9c1.6,0,3-0.3,4.3-0.7c1.3-0.5,2.4-1.1,3.4-1.9c0.9-0.8,1.7-1.8,2.2-2.9c0.5-1.2,0.8-2.5,0.8-3.9   c0-1.5-0.2-2.9-0.7-4.1c-0.5-1.2-1.1-2.2-2-3.1c-0.9-0.8-2-1.5-3.2-1.9c-1.3-0.5-2.7-0.7-4.3-0.7H1419.8z"
   id="path6543"
   style="fill:#d30c5c;fill-opacity:1;stroke:#d30c5c;stroke-opacity:1" />
	<path
   class="st7"
   d="M1506.3,65.5h-24.9v19h29.1v8.1h-39.1V32.1h38.8v8.2h-28.8v17.1h24.9V65.5z"
   id="path6545"
   style="fill:#d30c5c;fill-opacity:1;stroke:#d30c5c;stroke-opacity:1" />
	<path
   class="st7"
   d="M1574.8,40.4h-18.6v52.2h-9.9V40.4h-18.4v-8.2h46.9V40.4z"
   id="path6547"
   style="fill:#d30c5c;fill-opacity:1;stroke:#d30c5c;stroke-opacity:1" />
	<path
   class="st7"
   d="M1615.2,78.6h-18.9l-4.2,14h-10.3l19.6-60.5h8.8l19.3,60.5h-10.3L1615.2,78.6z M1598.9,70h13.9l-6.9-23.7   L1598.9,70z"
   id="path6549"
   style="stroke:#d30c5c;stroke-opacity:1;fill:#d30c5c;fill-opacity:1" />
</g>
<path
   class="st11"
   d="M1644.3,8c10.7,0,19.5,8.7,19.5,19.5v69.8c0,10.7-8.7,19.5-19.5,19.5H1395c-10.7,0-19.5-8.7-19.5-19.5V27.5  c0-10.7,8.7-19.5,19.5-19.5H1644.3 M1644.3,0H1395c-15.2,0-27.5,12.3-27.5,27.5v69.8c0,15.2,12.3,27.5,27.5,27.5h249.2  c15.2,0,27.5-12.3,27.5-27.5V27.5C1671.7,12.3,1659.4,0,1644.3,0L1644.3,0z"
   id="path6553"
   style="fill:#d30c5c;fill-opacity:1" />
<rect
   style="fill:#0c013b;fill-opacity:0.97647059;stroke:#0c013b;stroke-width:0.99689937;stroke-opacity:1"
   id="rect7109"
   width="231.82506"
   height="241.41901"
   x="0.75973815"
   y="0.39755493" /><text
   xml:space="preserve"
   style="font-style:normal;font-weight:normal;font-size:40px;line-height:1.25;font-family:sans-serif;letter-spacing:0px;word-spacing:0px;fill:#000000;fill-opacity:0;stroke:none;"
   x="34.877674"
   y="115.64036"
   id="text7116"><tspan
     sodipodi:role="line"
     id="tspan7114"
     x="34.877674"
     y="151.03098" /></text>

<text
   xml:space="preserve"
   style="font-style:normal;font-weight:normal;font-size:40px;line-height:1.25;font-family:sans-serif;letter-spacing:0px;word-spacing:0px;fill:#000000;fill-opacity:0;stroke:none"
   x="17.907112"
   y="165.047"
   id="text7120"><tspan
     sodipodi:role="line"
     id="tspan7118"
     x="17.907112"
     y="165.047"
     style="font-style:italic;font-variant:normal;font-weight:bold;font-stretch:normal;font-size:146.66667175px;font-family:'Liberation Sans';-inkscape-font-specification:'Liberation Sans Bold Italic';fill:#ffffff;fill-opacity:1">Kx</tspan></text>

</svg>