<?xml version="1.0" encoding="UTF-8" standalone="no"?>
<!-- Generator: Adobe Illustrator 16.0.0, SVG Export Plug-In . SVG Version: 6.00 Build 0)  -->

<svg
   xmlns:dc="http://purl.org/dc/elements/1.1/"
   xmlns:cc="http://creativecommons.org/ns#"
   xmlns:rdf="http://www.w3.org/1999/02/22-rdf-syntax-ns#"
   xmlns:svg="http://www.w3.org/2000/svg"
   xmlns="http://www.w3.org/2000/svg"
   xmlns:sodipodi="http://sodipodi.sourceforge.net/DTD/sodipodi-0.dtd"
   xmlns:inkscape="http://www.inkscape.org/namespaces/inkscape"
   version="1.1"
   id="Layer_1"
   x="0px"
   y="0px"
   width="24.088px"
   height="24px"
   viewBox="189.192 0 24.088 24"
   enable-background="new 189.192 0 24.088 24"
   xml:space="preserve"
   fill="#F7861C"
   sodipodi:docname="copy.svg"
   inkscape:version="0.92.3 (d244b95, 2018-08-02)"><metadata
   id="metadata10430"><rdf:RDF><cc:Work
       rdf:about=""><dc:format>image/svg+xml</dc:format><dc:type
         rdf:resource="http://purl.org/dc/dcmitype/StillImage" /></cc:Work></rdf:RDF></metadata><defs
   id="defs10428" /><sodipodi:namedview
   pagecolor="#ffffff"
   bordercolor="#666666"
   borderopacity="1"
   objecttolerance="10"
   gridtolerance="10"
   guidetolerance="10"
   inkscape:pageopacity="0"
   inkscape:pageshadow="2"
   inkscape:window-width="1368"
   inkscape:window-height="704"
   id="namedview10426"
   showgrid="false"
   inkscape:zoom="9.8333333"
   inkscape:cx="12.044"
   inkscape:cy="12"
   inkscape:window-x="1920"
   inkscape:window-y="27"
   inkscape:window-maximized="1"
   inkscape:current-layer="Layer_1" />
<g
   id="g10413"
   style="fill:#d30c5c;fill-opacity:1">
	<g
   id="g10411"
   style="fill:#d30c5c;fill-opacity:1">
		<path
   fill="#F7861C"
   d="M204.655,7.169h-8.962c-1.1,0-1.991,0.891-1.991,1.991v8.963c0,1.1,0.892,1.99,1.991,1.99h8.962    c1.101,0,1.991-0.891,1.991-1.99V9.16C206.646,8.06,205.756,7.169,204.655,7.169z M205.651,18.123    c0,0.549-0.446,0.994-0.996,0.994h-8.962c-0.549,0-0.995-0.445-0.995-0.994V9.16c0-0.55,0.446-0.996,0.995-0.996h8.962    c0.55,0,0.996,0.446,0.996,0.996V18.123z"
   id="path10409"
   style="fill:#d30c5c;fill-opacity:1" />
	</g>
</g>
<path
   fill="#F7861C"
   d="M196.689,11.152h6.969v-0.996h-6.969V11.152z"
   id="path10415"
   style="fill:#d30c5c;fill-opacity:1" />
<path
   fill="#F7861C"
   d="M196.689,13.144h6.969v-0.996h-6.969V13.144z"
   id="path10417"
   style="fill:#d30c5c;fill-opacity:1" />
<path
   fill="#F7861C"
   d="M196.689,15.135h6.969v-0.996h-6.969V15.135z"
   id="path10419"
   style="fill:#d30c5c;fill-opacity:1" />
<path
   fill="#F7861C"
   d="M196.689,17.126h3.982v-0.994h-3.982V17.126z"
   id="path10421"
   style="fill:#d30c5c;fill-opacity:1" />
<path
   fill="#F7861C"
   d="M207.643,4.182h-8.962c-1.101,0-1.991,0.892-1.991,1.991h0.995c0-0.549,0.446-0.996,0.996-0.996h8.962  c0.549,0,0.995,0.447,0.995,0.996v8.962c0,0.55-0.446,0.997-0.995,0.997v0.994c1.101,0,1.991-0.891,1.991-1.991V6.172  C209.634,5.073,208.743,4.182,207.643,4.182z"
   id="path10423"
   style="fill:#d30c5c;fill-opacity:1" />
</svg>