<?xml version="1.0" encoding="UTF-8" standalone="no"?>
<svg
   xmlns:dc="http://purl.org/dc/elements/1.1/"
   xmlns:cc="http://creativecommons.org/ns#"
   xmlns:rdf="http://www.w3.org/1999/02/22-rdf-syntax-ns#"
   xmlns:svg="http://www.w3.org/2000/svg"
   xmlns="http://www.w3.org/2000/svg"
   xmlns:sodipodi="http://sodipodi.sourceforge.net/DTD/sodipodi-0.dtd"
   xmlns:inkscape="http://www.inkscape.org/namespaces/inkscape"
   width="213px"
   height="78px"
   viewBox="0 0 213 78"
   version="1.1"
   id="svg20305"
   sodipodi:docname="hardware-wallet-step-1.svg"
   inkscape:version="0.92.3 (d244b95, 2018-08-02)">
  <metadata
     id="metadata20309">
    <rdf:RDF>
      <cc:Work
         rdf:about="">
        <dc:format>image/svg+xml</dc:format>
        <dc:type
           rdf:resource="http://purl.org/dc/dcmitype/StillImage" />
      </cc:Work>
    </rdf:RDF>
  </metadata>
  <sodipodi:namedview
     pagecolor="#ffffff"
     bordercolor="#666666"
     borderopacity="1"
     objecttolerance="10"
     gridtolerance="10"
     guidetolerance="10"
     inkscape:pageopacity="0"
     inkscape:pageshadow="2"
     inkscape:window-width="1368"
     inkscape:window-height="704"
     id="namedview20307"
     showgrid="false"
     inkscape:zoom="4.5015812"
     inkscape:cx="145.64546"
     inkscape:cy="23.672405"
     inkscape:window-x="1920"
     inkscape:window-y="27"
     inkscape:window-maximized="1"
     inkscape:current-layer="Group-3" />
  <!-- Generator: sketchtool 50.2 (55047) - http://www.bohemiancoding.com/sketch -->
  <title
     id="title20270">2981A924-C7CB-4957-87AD-8C680802DAD7</title>
  <desc
     id="desc20272">Created with sketchtool.</desc>
  <defs
     id="defs20274" />
  <g
     id="Import-account"
     stroke="none"
     stroke-width="1"
     fill="none"
     fill-rule="evenodd">
    <g
       id="hardware-connect"
       transform="translate(-406.000000, -602.000000)">
      <g
         id="Group-9"
         transform="translate(356.000000, 522.000000)">
        <g
           id="connect-hardware"
           transform="translate(51.000000, 81.000000)">
          <path
             d="M4,9 L70,9 L70,17 L4,17 C1.790861,17 2.705415e-16,15.209139 0,13 L0,13 C-2.705415e-16,10.790861 1.790861,9 4,9 Z"
             id="Rectangle"
             fill="#D9F0FF"
             style="stroke:#0c013b;stroke-opacity:0;fill:#42426c;fill-opacity:1" />
          <g
             id="Group-4-Copy">
            <g
               id="Group-2"
               transform="translate(91.000000, 31.000000)"
               stroke="#3098DC">
              <polyline
                 id="Stroke-10"
                 points="7.33333333 0 13.4253333 5.29042105 7.33333333 10.5802632"
                 style="fill:#0c013b;fill-opacity:0;stroke:#0c013b;stroke-opacity:1" />
              <path
                 d="M0,5.21052632 L13.5,5.21052632"
                 id="Stroke-11"
                 style="stroke:#0c013b;stroke-opacity:1" />
            </g>
            <g
               id="Group-3"
               transform="translate(109.000000, 0.000000)">
              <path
                 d="M92.535988,75.1897419 L9.16167665,75.1897419 C7.13816766,75.1897419 5.49700599,73.5434839 5.49700599,71.5123226 L5.49700599,3.67741935 C5.49700599,1.64625806 7.13816766,0 9.16167665,0 L92.535988,0 C94.5601078,0 96.2006587,1.64625806 96.2006587,3.67741935 L96.2006587,71.5123226 C96.2006587,73.5434839 94.5601078,75.1897419 92.535988,75.1897419"
                 id="Fill-12"
                 fill="#FEFEFE" />
              <path
                 d="M92.535988,75.1897419 L9.16167665,75.1897419 C7.13816766,75.1897419 5.49700599,73.5434839 5.49700599,71.5123226 L5.49700599,3.67741935 C5.49700599,1.64625806 7.13816766,0 9.16167665,0 L92.535988,0 C94.5601078,0 96.2006587,1.64625806 96.2006587,3.67741935 L96.2006587,71.5123226 C96.2006587,73.5434839 94.5601078,75.1897419 92.535988,75.1897419 Z"
                 id="Stroke-13"
                 stroke="#3098DC"
                 style="stroke:#0c013b;stroke-opacity:1" />
              <path
                 d="M100.70576,75.6298065 L1.22155689,75.6298065 C0.546646707,75.6298065 0,75.0812581 0,74.404 L0,69.8709677 C0,69.1937097 0.546646707,68.6451613 1.22155689,68.6451613 L100.70576,68.6451613 C101.38006,68.6451613 101.927317,69.1937097 101.927317,69.8709677 L101.927317,74.404 C101.927317,75.0812581 101.38006,75.6298065 100.70576,75.6298065"
                 id="Fill-14"
                 fill="#D9F0FF"
                 style="fill:#41416b;fill-opacity:1" />
              <path
                 d="M100.70576,75.6298065 L1.22155689,75.6298065 C0.546646707,75.6298065 0,75.0812581 0,74.404 L0,69.8709677 C0,69.1937097 0.546646707,68.6451613 1.22155689,68.6451613 L100.70576,68.6451613 C101.38006,68.6451613 101.927317,69.1937097 101.927317,69.8709677 L101.927317,74.404 C101.927317,75.0812581 101.38006,75.6298065 100.70576,75.6298065 Z"
                 id="Stroke-15"
                 stroke="#3098DC"
                 style="stroke:#0c013b;stroke-opacity:1" />
              <polygon
                 id="Fill-16"
                 fill="#FEFEFE"
                 points="9.77245509 63.6953548 92.1554731 63.6953548 92.1554731 4.90322581 9.77245509 4.90322581" />
              <polygon
                 id="Stroke-17"
                 stroke="#3098DC"
                 points="9.77245509 63.6953548 92.1554731 63.6953548 92.1554731 4.90322581 9.77245509 4.90322581"
                 style="stroke:#0c013b;stroke-opacity:1" />
              <rect
                 style="opacity:0.98600003;fill:#0c013b;fill-opacity:1;stroke:#0c013b;stroke-width:1;stroke-miterlimit:4;stroke-dasharray:none;stroke-opacity:1"
                 id="rect21539"
                 width="35.098778"
                 height="34.432346"
                 x="31.283691"
                 y="16.576786" />
              <text
                 xml:space="preserve"
                 style="font-style:normal;font-weight:normal;font-size:40px;line-height:1.25;font-family:sans-serif;letter-spacing:0px;word-spacing:0px;fill:#000000;fill-opacity:1;stroke:none"
                 x="36.391602"
                 y="39.68259"
                 id="text21543"><tspan
                   sodipodi:role="line"
                   id="tspan21541"
                   x="36.391602"
                   y="39.68259"
                   style="font-style:italic;font-variant:normal;font-weight:bold;font-stretch:normal;font-size:21.33333397px;font-family:'Liberation Mono';-inkscape-font-specification:'Liberation Mono Bold Italic';fill:#ffffff">Kx</tspan></text>
            </g>
            <g
               id="Group"
               transform="translate(0.000000, 9.000000)">
              <path
                 d="M66.9571429,59 L3.68571429,59 C1.65058571,59 0,57.3318526 0,55.2736842 L0,3.72631579 C0,1.66876842 1.65058571,0 3.68571429,0 L66.9571429,0 C68.9922714,0 70.6428571,1.66876842 70.6428571,3.72631579 L70.6428571,55.2736842 C70.6428571,57.3318526 68.9922714,59 66.9571429,59 Z"
                 id="Stroke-1"
                 stroke="#3098DC"
                 style="stroke:#0c013b;stroke-opacity:1" />
              <path
                 d="M66.9571429,7.45263158 L3.68571429,7.45263158 C1.65058571,7.45263158 0,5.78448421 0,3.72631579 C0,1.66876842 1.65058571,0 3.68571429,0 L66.9571429,0 C68.9922714,0 70.6428571,1.66876842 70.6428571,3.72631579"
                 id="Stroke-3"
                 stroke="#3098DC"
                 style="stroke:#0c013b;stroke-opacity:1" />
              <path
                 d="M66.9571429,7.45263158 C68.9922714,7.45263158 70.6428571,9.1214 70.6428571,11.1789474"
                 id="Stroke-5"
                 stroke="#3098DC"
                 style="stroke:#0c013b;stroke-opacity:1" />
              <polygon
                 id="Stroke-7"
                 stroke="#3098DC"
                 points="70.6428571 23.5987579 85.5319143 23.5987579 85.5319143 19.8736842 70.6428571 19.8736842"
                 style="stroke:#0c013b;stroke-opacity:1" />
              <polygon
                 id="Stroke-9"
                 stroke="#3098DC"
                 points="70.6428571 38.6530737 85.5319143 38.6530737 85.5319143 23.6 70.6428571 23.6"
                 style="stroke:#0c013b;stroke-opacity:1" />
              <path
                 d="M35.2784286,22.3578947 L28.9666429,32.8356737 L35.2784286,36.5682 L41.5902143,32.8387789 L35.2784286,22.3578947 Z M35.1832143,37.7631053 L28.8714286,34.0336842 L35.1832143,42.9321263 L41.4986857,34.0336842 L35.1819857,37.7631053 L35.1832143,37.7631053 Z"
                 id="Fill-23"
                 fill="#3098DC"
                 style="fill:#0c013b;fill-opacity:1" />
              <path
                 d="M50.4672571,32.9642316 C50.4672571,24.3626526 43.5700571,17.3894737 35.0622,17.3894737 C26.5543429,17.3894737 19.6571429,24.3626526 19.6571429,32.9642316 C19.6571429,41.5664316 26.5543429,48.5389895 35.0622,48.5389895 C43.5700571,48.5389895 50.4672571,41.5664316 50.4672571,32.9642316 Z"
                 id="Stroke-24"
                 stroke="#3098DC"
                 style="stroke:#0c013b;stroke-opacity:1" />
            </g>
          </g>
        </g>
      </g>
    </g>
  </g>
</svg>
