<?xml version="1.0" encoding="UTF-8" standalone="no"?>
<svg
   xmlns:dc="http://purl.org/dc/elements/1.1/"
   xmlns:cc="http://creativecommons.org/ns#"
   xmlns:rdf="http://www.w3.org/1999/02/22-rdf-syntax-ns#"
   xmlns:svg="http://www.w3.org/2000/svg"
   xmlns="http://www.w3.org/2000/svg"
   xmlns:sodipodi="http://sodipodi.sourceforge.net/DTD/sodipodi-0.dtd"
   xmlns:inkscape="http://www.inkscape.org/namespaces/inkscape"
   width="108px"
   height="85px"
   viewBox="0 0 108 85"
   version="1.1"
   id="svg16655"
   sodipodi:docname="hardware-wallet-step-3.svg"
   inkscape:version="0.92.3 (d244b95, 2018-08-02)">
  <metadata
     id="metadata16659">
    <rdf:RDF>
      <cc:Work
         rdf:about="">
        <dc:format>image/svg+xml</dc:format>
        <dc:type
           rdf:resource="http://purl.org/dc/dcmitype/StillImage" />
      </cc:Work>
    </rdf:RDF>
  </metadata>
  <sodipodi:namedview
     pagecolor="#ffffff"
     bordercolor="#666666"
     borderopacity="1"
     objecttolerance="10"
     gridtolerance="10"
     guidetolerance="10"
     inkscape:pageopacity="0"
     inkscape:pageshadow="2"
     inkscape:window-width="1368"
     inkscape:window-height="704"
     id="namedview16657"
     showgrid="false"
     inkscape:zoom="11.313708"
     inkscape:cx="7.118836"
     inkscape:cy="21.728038"
     inkscape:window-x="1920"
     inkscape:window-y="27"
     inkscape:window-maximized="1"
     inkscape:current-layer="Group-3" />
  <!-- Generator: sketchtool 50.2 (55047) - http://www.bohemiancoding.com/sketch -->
  <title
     id="title16618">CEB55C41-7BCE-405E-83CD-834B388B495F</title>
  <desc
     id="desc16620">Created with sketchtool.</desc>
  <defs
     id="defs16622">
    <marker
       inkscape:stockid="Arrow1Lstart"
       orient="auto"
       refY="0.0"
       refX="0.0"
       id="marker17557"
       style="overflow:visible"
       inkscape:isstock="true">
      <path
         id="path17555"
         d="M 0.0,0.0 L 5.0,-5.0 L -12.5,0.0 L 5.0,5.0 L 0.0,0.0 z "
         style="fill-rule:evenodd;stroke:#3098dc;stroke-width:1pt;stroke-opacity:1;fill:#d9f0ff;fill-opacity:1"
         transform="scale(0.8) translate(12.5,0)" />
    </marker>
    <marker
       inkscape:stockid="Arrow1Lstart"
       orient="auto"
       refY="0.0"
       refX="0.0"
       id="marker17529"
       style="overflow:visible"
       inkscape:isstock="true">
      <path
         id="path17527"
         d="M 0.0,0.0 L 5.0,-5.0 L -12.5,0.0 L 5.0,5.0 L 0.0,0.0 z "
         style="fill-rule:evenodd;stroke:#3098dc;stroke-width:1pt;stroke-opacity:1;fill:#d9f0ff;fill-opacity:1"
         transform="scale(0.8) translate(12.5,0)" />
    </marker>
    <marker
       inkscape:stockid="Arrow1Lstart"
       orient="auto"
       refY="0.0"
       refX="0.0"
       id="marker17507"
       style="overflow:visible"
       inkscape:isstock="true">
      <path
         id="path17505"
         d="M 0.0,0.0 L 5.0,-5.0 L -12.5,0.0 L 5.0,5.0 L 0.0,0.0 z "
         style="fill-rule:evenodd;stroke:#3098dc;stroke-width:1pt;stroke-opacity:1;fill:#d9f0ff;fill-opacity:1"
         transform="scale(0.8) translate(12.5,0)" />
    </marker>
    <marker
       inkscape:stockid="Arrow1Lstart"
       orient="auto"
       refY="0.0"
       refX="0.0"
       id="Arrow1Lstart"
       style="overflow:visible"
       inkscape:isstock="true">
      <path
         id="path17229"
         d="M 0.0,0.0 L 5.0,-5.0 L -12.5,0.0 L 5.0,5.0 L 0.0,0.0 z "
         style="fill-rule:evenodd;stroke:#3098dc;stroke-width:1pt;stroke-opacity:1;fill:#d9f0ff;fill-opacity:1"
         transform="scale(0.8) translate(12.5,0)" />
    </marker>
  </defs>
  <g
     id="Import-account"
     stroke="none"
     stroke-width="1"
     fill="none"
     fill-rule="evenodd">
    <g
       id="hardware-connect"
       transform="translate(-457.000000, -1057.000000)">
      <g
         id="Group-11"
         transform="translate(356.000000, 929.000000)">
        <g
           id="use-dapps"
           transform="translate(102.000000, 129.000000)">
          <g
             id="Group-3">
            <path
               d="M96.2021481,83 L9.79785192,83 C7.70080469,83 6,81.2922121 6,79.1851351 L6,8.81486493 C6,6.70778787 7.70080469,5 9.79785192,5 L96.2021481,5 C98.2998283,5 100,6.70778787 100,8.81486493 L100,79.1851351 C100,81.2922121 98.2998283,83 96.2021481,83"
               id="Fill-12"
               fill="#FEFEFE" />
            <path
               d="M96.2021481,83 L9.79785192,83 C7.70080469,83 6,81.2922121 6,79.1851351 L6,8.81486493 C6,6.70778787 7.70080469,5 9.79785192,5 L96.2021481,5 C98.2998283,5 100,6.70778787 100,8.81486493 L100,79.1851351 C100,81.2922121 98.2998283,83 96.2021481,83 Z"
               id="Stroke-13"
               style="stroke:#0c013b;stroke-opacity:1"
               stroke="#3098DC" />
            <path
               d="M104.729634,83 L1.27036631,83 C0.568488923,83 0,82.4502457 0,81.7714988 L0,77.2285012 C0,76.5497543 0.568488923,76 1.27036631,76 L104.729634,76 C105.430876,76 106,76.5497543 106,77.2285012 L106,81.7714988 C106,82.4502457 105.430876,83 104.729634,83"
               id="Fill-14"
               style="fill:#42426c;fill-opacity:1"
               fill="#D9F0FF" />
            <path
               d="M104.729634,83 L1.27036631,83 C0.568488923,83 0,82.4502457 0,81.7714988 L0,77.2285012 C0,76.5497543 0.568488923,76 1.27036631,76 L104.729634,76 C105.430876,76 106,76.5497543 106,77.2285012 L106,81.7714988 C106,82.4502457 105.430876,83 104.729634,83 Z"
               id="Stroke-15"
               style="stroke:#0c013b;stroke-opacity:1"
               stroke="#3098DC" />
            <polygon
               id="Fill-16"
               points="10 71 96 71 96 10 10 10"
               fill="#FEFEFE" />
            <polygon
               id="Stroke-17"
               points="10 71 96 71 96 10 10 10"
               style="stroke:#0c013b;stroke-opacity:1"
               stroke="#3098DC" />
            <rect
               id="Rectangle-2"
               x="14.5"
               y="14.5"
               width="77"
               height="53"
               rx="2"
               style="stroke:#0c013b;stroke-opacity:1"
               stroke="#3098DC"
               fill="#FFFFFF" />
            <path
               d="M14.5,21.5 L91.5,21.5 L91.5,16 C91.5,15.1715729 90.8284271,14.5 90,14.5 L16,14.5 C15.1715729,14.5 14.5,15.1715729 14.5,16 L14.5,21.5 Z"
               id="Rectangle-3"
               style="stroke:#0c013b;stroke-opacity:1"
               stroke="#3098DC"
               fill="#FFFFFF" />
            <g
               id="Group-6"
               transform="translate(17.000000, 17.000000)"
               stroke="#3098DC"
               fill="#D9F0FF">
              <circle
                 id="Oval-2"
                 cx="1"
                 cy="1"
                 r="1"
                 style="stroke:#0c013b;stroke-opacity:1" />
              <circle
                 id="circle16633"
                 cx="5.76923077"
                 cy="1"
                 r="1"
                 style="stroke:#0c013b;stroke-opacity:1" />
              <circle
                 id="circle16635"
                 cx="10.5384615"
                 cy="1"
                 r="1"
                 style="opacity:0.986;stroke-width:1;stroke-miterlimit:4;stroke-dasharray:none;stroke:#0c013b;stroke-opacity:1" />
            </g>
            <text
               xml:space="preserve"
               style="font-style:normal;font-weight:normal;font-size:37.68625259px;line-height:0;font-family:sans-serif;letter-spacing:0px;word-spacing:0px;fill:#0c013b;fill-opacity:1;stroke:#000000;stroke-width:0.94215631;stroke-opacity:0;"
               x="15.31004"
               y="48.174904"
               id="text17208"
               transform="scale(1.061395,0.94215631)"><tspan
                 sodipodi:role="line"
                 x="15.31004"
                 y="48.174904"
                 id="tspan17210"
                 style="font-style:normal;font-variant:normal;font-weight:bold;font-stretch:normal;font-size:10.66666698px;line-height:0.30000001;font-family:'Liberation Mono';-inkscape-font-specification:'Liberation Mono Bold';fill:#0c013b;fill-opacity:1;stroke-width:0.94215631;stroke:#ffffff;stroke-opacity:0.13736264">LOGIN WITH </tspan><tspan
                 sodipodi:role="line"
                 x="15.31004"
                 y="56.877731"
                 style="font-style:normal;font-variant:normal;font-weight:bold;font-stretch:normal;font-size:10.66666698px;line-height:0.30000001;font-family:'Liberation Mono';-inkscape-font-specification:'Liberation Mono Bold';fill:#0c013b;fill-opacity:1;stroke-width:0.94215631;stroke:#ffffff;stroke-opacity:0.13736264"
                 id="tspan17221">WALLET-KONDOR</tspan></text>
            <text
               xml:space="preserve"
               style="font-style:normal;font-weight:normal;font-size:40px;line-height:1.25;font-family:sans-serif;letter-spacing:0px;word-spacing:0px;fill:#000000;fill-opacity:1;stroke:none"
               x="81.25"
               y="15.5"
               id="text17605"><tspan
                 sodipodi:role="line"
                 id="tspan17603"
                 x="81.25"
                 y="50.890625" /></text>
          </g>
        </g>
      </g>
    </g>
  </g>
  <rect
     style="fill:#0c013b;fill-opacity:1;stroke:#0c013b;stroke-width:0.97982031;stroke-opacity:1"
     id="rect17204"
     width="32.925407"
     height="29.097601"
     x="74.489288"
     y="0.51398695" />
  <g
     inkscape:groupmode="layer"
     id="layer1"
     inkscape:label="Layer 1">
    <text
       xml:space="preserve"
       style="font-style:normal;font-weight:normal;font-size:40px;line-height:1.25;font-family:sans-serif;letter-spacing:0px;word-spacing:0px;fill:#ffffff;fill-opacity:1;stroke:none"
       x="78.281219"
       y="20.552223"
       id="text17609"><tspan
         sodipodi:role="line"
         id="tspan17607"
         x="78.281219"
         y="20.552223"
         style="font-style:italic;font-variant:normal;font-weight:bold;font-stretch:normal;font-size:21.33333397px;font-family:'Liberation Mono';-inkscape-font-specification:'Liberation Mono Bold Italic'">Kx</tspan></text>
  </g>
</svg>
